<svg id="Capa_1" data-name="Capa 1" xmlns="http://www.w3.org/2000/svg" viewBox="0 0 198.64 224.12"><defs><style>.cls-1{fill:#f2f2f2;}.cls-1,.cls-2{stroke:#4d4d4d;stroke-miterlimit:10;stroke-width:3px;}.cls-2{fill:#fb3a35;}</style></defs><path class="cls-1" d="M498.91,524s34.51,5,55.21,35,11.51,33,11.51,33l-4.6,1L434.48,556l54.07-147,21.86,48s4.22,41.19-8.25,61.59Z" transform="translate(-413.86 -370.42)"/><path class="cls-1" d="M415.48,471.5s6.35,34.5,27.06,58.5l43.71-121-2.3-7Z" transform="translate(-413.86 -370.42)"/><path class="cls-2" d="M511.43,374.16,490.86,394.7a4.56,4.56,0,0,0-1.05,5.15l80.7,183.56a6.13,6.13,0,0,0,7.36,3l29.18-8.7c3.13-.93,4.75-4,3.56-6.64l-86.52-195C522.06,371.52,515.14,370.46,511.43,374.16Z" transform="translate(-413.86 -370.42)"/></svg>